<?xml version="1.0" standalone="no"?>
<!DOCTYPE svg PUBLIC "-//W3C//DTD SVG 20010904//EN"
 "http://www.w3.org/TR/2001/REC-SVG-20010904/DTD/svg10.dtd">
<svg version="1.0" xmlns="http://www.w3.org/2000/svg"
 width="990.000000pt" height="930.000000pt" viewBox="0 0 990.000000 930.000000"
 preserveAspectRatio="xMidYMid meet">

<g transform="translate(0.000000,930.000000) scale(0.100000,-0.100000)"
fill="#000000" stroke="none">
<path d="M2700 9150 l0 -150 -150 0 -150 0 0 -150 0 -150 300 0 300 0 0 -150
0 -150 -150 0 -150 0 0 -150 0 -150 -300 0 -300 0 0 -150 0 -150 -300 0 -300
0 0 -150 0 -150 -150 0 -150 0 0 -150 0 -150 -150 0 -150 0 0 -150 0 -150
-300 0 -300 0 0 -150 0 -150 150 0 150 0 0 -150 0 -150 -150 0 -150 0 0 -150
0 -150 -150 0 -150 0 0 -150 0 -150 150 0 150 0 0 -450 0 -450 -150 0 -150 0
0 -450 0 -450 150 0 150 0 0 150 0 150 150 0 150 0 0 -300 0 -300 150 0 150 0
0 -450 0 -450 150 0 150 0 0 -150 0 -150 150 0 150 0 0 -300 0 -300 -300 0
-300 0 0 -150 0 -150 150 0 150 0 0 -150 0 -150 300 0 300 0 0 -150 0 -150
-150 0 -150 0 0 -150 0 -150 150 0 150 0 0 -150 0 -150 900 0 900 0 0 -150 0
-150 1350 0 1350 0 0 150 0 150 900 0 900 0 0 150 0 150 150 0 150 0 0 150 0
150 -150 0 -150 0 0 150 0 150 300 0 300 0 0 150 0 150 150 0 150 0 0 150 0
150 -300 0 -300 0 0 300 0 300 150 0 150 0 0 150 0 150 150 0 150 0 0 450 0
450 150 0 150 0 0 450 0 450 150 0 150 0 0 -150 0 -150 150 0 150 0 0 450 0
450 -150 0 -150 0 0 450 0 450 -150 0 -150 0 0 300 0 300 -150 0 -150 0 0 150
0 150 -150 0 -150 0 0 150 0 150 150 0 150 0 0 150 0 150 -300 0 -300 0 0 150
0 150 -300 0 -300 0 0 150 0 150 -300 0 -300 0 0 150 0 150 -300 0 -300 0 0
150 0 150 -900 0 -900 0 0 -150 0 -150 -300 0 -300 0 0 150 0 150 -150 0 -150
0 0 150 0 150 -150 0 -150 0 0 150 0 150 -450 0 -450 0 0 -150z m900 -3900 l0
-150 150 0 150 0 0 -300 0 -300 150 0 150 0 0 -150 0 -150 150 0 150 0 0 -150
0 -150 150 0 150 0 0 300 0 300 -150 0 -150 0 0 300 0 300 150 0 150 0 0 -150
0 -150 150 0 150 0 0 -150 0 -150 150 0 150 0 0 -300 0 -300 150 0 150 0 0
-150 0 -150 300 0 300 0 0 300 0 300 -150 0 -150 0 0 600 0 600 150 0 150 0 0
-150 0 -150 150 0 150 0 0 -150 0 -150 150 0 150 0 0 -150 0 -150 150 0 150 0
0 -150 0 -150 150 0 150 0 0 -750 0 -750 150 0 150 0 0 150 0 150 150 0 150 0
0 450 0 450 300 0 300 0 0 -600 0 -600 -150 0 -150 0 0 -150 0 -150 -300 0
-300 0 0 -150 0 -150 -150 0 -150 0 0 -300 0 -300 -150 0 -150 0 0 -150 0
-150 -150 0 -150 0 0 -150 0 -150 -300 0 -300 0 0 -150 0 -150 -450 0 -450 0
0 -150 0 -150 -450 0 -450 0 0 150 0 150 -450 0 -450 0 0 150 0 150 -300 0
-300 0 0 150 0 150 -150 0 -150 0 0 150 0 150 -150 0 -150 0 0 300 0 300 -150
0 -150 0 0 150 0 150 -300 0 -300 0 0 150 0 150 -150 0 -150 0 0 600 0 600
300 0 300 0 0 -450 0 -450 150 0 150 0 0 -150 0 -150 150 0 150 0 0 900 0 900
150 0 150 0 0 150 0 150 150 0 150 0 0 150 0 150 150 0 150 0 0 150 0 150 150
0 150 0 0 -150z"/>
</g>
</svg>
